# xmcd
#
# Track frame offsets:
#	150
#	25862
#	52037
#	69887
#	93587
#	110687
#	139037
#	163337
#	200462
#	235337
#	264287
#	287087
#
# Disc length: 4356
#
# Revision: 1
# Processed by: cddbd v1.5.1PL0 Copyright (c) Steve Scherf et al.
# Submitted via: dBpowerAMP V4.0
# Normalized: r0:TDELIM( - )
#
DISCID=ad11020c
DTITLE=Various Artist - Shade of Blues
DYEAR=1993
DGENRE=Blues
TTITLE0=John Lee Hooker - The Healer
TTITLE1=Willie Dixon - Blues you can't lose
TTITLE2=Pops Staples - World in motion
TTITLE3=B.B. King - The blues come over me
TTITLE4=The Robert Cray Band - Don't be afraid of the dark
TTITLE5=Buddy Guy - Country man
TTITLE6=Johnny Winter - You keep saying that you're leaving
TTITLE7=Eric Clapton - Same old blues
TTITLE8=Gary Moore - As the years go passing by
TTITLE9=Little Village - Big love
TTITLE10=Robert Ward - Lord have mercy on me
TTITLE11=Duane Allman - Going down slow
EXTD=
EXTT0=
EXTT1=
EXTT2=
EXTT3=
EXTT4=
EXTT5=
EXTT6=
EXTT7=
EXTT8=
EXTT9=
EXTT10=
EXTT11=
PLAYORDER=
